<svg width="115" height="43" viewBox="0 0 115 43" fill="none" xmlns="http://www.w3.org/2000/svg">
<path d="M78.246 10.5234C78.7174 10.5344 79.1861 10.4494 79.6232 10.2735C80.0603 10.0976 80.4566 9.8346 80.7877 9.50069C81.1243 9.17202 81.3894 8.77806 81.5667 8.34331C81.7439 7.90856 81.8295 7.44228 81.818 6.9733C81.8291 6.50437 81.7434 6.03818 81.5662 5.60348C81.389 5.16877 81.124 4.77479 80.7877 4.44591C80.4562 4.11272 80.0598 3.85031 79.6227 3.67481C79.1857 3.4993 78.7172 3.41439 78.246 3.42524C77.7748 3.41439 77.3062 3.4993 76.8692 3.67481C76.4322 3.85031 76.0358 4.11272 75.7043 4.44591C75.3683 4.77496 75.1037 5.16897 74.9269 5.60367C74.75 6.03836 74.6645 6.50451 74.6759 6.9733C74.6641 7.44215 74.7493 7.90846 74.9262 8.34322C75.1031 8.77798 75.368 9.17192 75.7043 9.50069C76.0354 9.8346 76.4316 10.0976 76.8687 10.2735C77.3058 10.4494 77.7746 10.5344 78.246 10.5234Z" fill="#A1ED00"/>
<path d="M13.0993 11.6992C9.62645 11.7033 6.29703 13.0771 3.84133 15.519C1.38562 17.9609 0.00413933 21.2716 0 24.725V29.9742C0.00413933 33.4275 1.38562 36.7383 3.84133 39.1802C6.29703 41.6221 9.62645 42.9958 13.0993 42.9999C16.5722 42.9958 19.9017 41.6221 22.3574 39.1802C24.8131 36.7383 26.1945 33.4275 26.1987 29.9742V24.725C26.1945 21.2716 24.8131 17.9609 22.3574 15.519C19.9017 13.0771 16.5722 11.7033 13.0993 11.6992ZM20.3333 29.9742C20.3333 31.882 19.5712 33.7116 18.2146 35.0606C16.8579 36.4097 15.0179 37.1675 13.0993 37.1675C11.1808 37.1675 9.34076 36.4097 7.98413 35.0606C6.6275 33.7116 5.86538 31.882 5.86538 29.9742V24.725C5.86538 22.8172 6.6275 20.9875 7.98413 19.6385C9.34076 18.2895 11.1808 17.5316 13.0993 17.5316C15.0179 17.5316 16.8579 18.2895 18.2146 19.6385C19.5712 20.9875 20.3333 22.8172 20.3333 24.725V29.9742Z" fill="black"/>
<path d="M43.7966 11.6992C36.5744 11.6992 30.6973 17.4908 30.6973 24.6083V39.7921C30.6973 40.5655 31.0063 41.3072 31.5563 41.8541C32.1062 42.401 32.8522 42.7083 33.63 42.7083C34.4078 42.7083 35.1537 42.401 35.7036 41.8541C36.2536 41.3072 36.5626 40.5655 36.5626 39.7921V24.6083C36.5626 20.7064 39.8082 17.5316 43.7966 17.5316C47.7851 17.5316 51.0306 20.7064 51.0306 24.6083V39.7921C51.0306 40.5655 51.3396 41.3072 51.8896 41.8541C52.4396 42.401 53.1855 42.7083 53.9633 42.7083C54.7411 42.7083 55.487 42.401 56.037 41.8541C56.5869 41.3072 56.896 40.5655 56.896 39.7921V24.6083C56.896 17.4908 51.0188 11.6992 43.7966 11.6992Z" fill="black"/>
<path d="M112.358 36.9426C109.183 36.2563 106.825 34.6602 105.355 32.197C104.68 31.0728 104.225 29.8321 104.013 28.5401V17.5323H111.736C112.514 17.5323 113.26 17.225 113.81 16.6781C114.36 16.1312 114.669 15.3895 114.669 14.6161C114.669 13.8427 114.36 13.101 113.81 12.5541C113.26 12.0072 112.514 11.6999 111.736 11.6999H104.017V2.91621C104.017 2.14279 103.708 1.40107 103.158 0.85417C102.608 0.307273 101.862 0 101.085 0C100.307 0 99.5609 0.307273 99.0109 0.85417C98.4609 1.40107 98.1519 2.14279 98.1519 2.91621V11.6999H90.2747C89.4969 11.6999 88.751 12.0072 88.201 12.5541C87.651 13.101 87.342 13.8427 87.342 14.6161C87.342 15.3895 87.651 16.1312 88.201 16.6781C88.751 17.225 89.4969 17.5323 90.2747 17.5323H98.1519V28.3223C98.1498 30.5646 97.2531 32.7145 95.6586 34.3001C94.0641 35.8856 91.9021 36.7773 89.6471 36.7793C87.3921 36.7773 85.2301 35.8856 83.6356 34.3001C82.0411 32.7145 81.1444 30.5646 81.1423 28.3223V25.6005C81.1421 25.4855 81.1349 25.3706 81.1208 25.2564V15.8681C81.1208 15.0947 80.8118 14.353 80.2618 13.8061C79.7118 13.2592 78.9659 12.9519 78.1881 12.9519C77.4103 12.9519 76.6643 13.2592 76.1144 13.8061C75.5644 14.353 75.2555 15.0947 75.2555 15.8681V27.253C75.2555 27.4474 75.2555 28.3729 75.2555 28.5401C75.1421 31.6701 71.5857 36.3769 68.0918 36.9096C67.711 36.9677 67.3455 37.0998 67.0161 37.2985C66.6866 37.4971 66.3998 37.7584 66.1719 38.0673C65.9441 38.3762 65.7796 38.7267 65.688 39.0988C65.5965 39.4709 65.5796 39.8573 65.6382 40.236C65.7444 40.923 66.094 41.5497 66.6238 42.0031C67.1536 42.4565 67.8288 42.7068 68.5278 42.709C68.6783 42.7085 68.8286 42.6975 68.9775 42.6759C72.5749 42.1238 75.797 39.6994 78.016 36.6996C79.346 38.529 81.0933 40.0187 83.1144 41.0464C85.1356 42.0741 87.3731 42.6106 89.6432 42.6118C91.9243 42.6108 94.1723 42.0694 96.2011 41.0325C98.2298 39.9956 99.981 38.493 101.309 36.6491C103.145 39.0501 106.178 41.5775 111.114 42.6429C111.319 42.6868 111.528 42.7089 111.738 42.709C112.408 42.7086 113.057 42.4803 113.578 42.0623C114.099 41.6443 114.46 41.0616 114.602 40.411C114.684 40.0367 114.691 39.6501 114.622 39.2732C114.554 38.8963 114.411 38.5366 114.203 38.2146C113.994 37.8925 113.724 37.6144 113.407 37.3962C113.091 37.1779 112.734 37.0238 112.358 36.9426Z" fill="black"/>
</svg>
