<svg width="145" height="145" viewBox="0 0 145 145" fill="none" xmlns="http://www.w3.org/2000/svg">
<path d="M108.75 60.4166H101.138C98.8774 51.6622 94.2068 43.7174 87.6567 37.4848C81.1065 31.2523 72.9396 26.982 64.0837 25.1591C55.2279 23.3363 46.0383 24.034 37.5592 27.1729C29.0801 30.3119 21.6514 35.7662 16.1173 42.9162C10.5832 50.0662 7.16562 58.6251 6.25282 67.6204C5.34003 76.6157 6.96866 85.6867 10.9537 93.8026C14.9386 101.919 21.1202 108.754 28.7959 113.532C36.4717 118.311 45.3338 120.84 54.3753 120.833H108.75C116.762 120.833 124.446 117.651 130.111 111.985C135.776 106.32 138.959 98.6367 138.959 90.625C138.959 82.6132 135.776 74.9296 130.111 69.2644C124.446 63.5993 116.762 60.4166 108.75 60.4166Z" stroke="black" stroke-width="4" stroke-linecap="round" stroke-linejoin="round"/>
</svg>
