<svg width="145" height="145" viewBox="0 0 145 145" fill="none" xmlns="http://www.w3.org/2000/svg">
<path d="M48.335 114.791V126.875" stroke="#222222" stroke-width="4" stroke-linecap="round" stroke-linejoin="round"/>
<path d="M48.335 78.5414V90.6247" stroke="#222222" stroke-width="4" stroke-linecap="round" stroke-linejoin="round"/>
<path d="M96.665 114.791V126.875" stroke="#222222" stroke-width="4" stroke-linecap="round" stroke-linejoin="round"/>
<path d="M96.665 78.5414V90.6247" stroke="#222222" stroke-width="4" stroke-linecap="round" stroke-linejoin="round"/>
<path d="M72.5 126.875V138.958" stroke="#222222" stroke-width="4" stroke-linecap="round" stroke-linejoin="round"/>
<path d="M72.5 90.625V102.708" stroke="#222222" stroke-width="4" stroke-linecap="round" stroke-linejoin="round"/>
<path d="M120.834 100.171C127.185 97.3889 132.386 92.507 135.564 86.3444C138.742 80.1818 139.703 73.1136 138.286 66.3262C136.869 59.5389 133.16 53.4456 127.782 49.0691C122.404 44.6927 115.684 42.2995 108.751 42.2914H101.138C99.2232 34.8753 95.573 28.0206 90.4887 22.2922C85.4044 16.5638 79.0314 12.1258 71.8952 9.34386C64.759 6.56195 57.0638 5.51583 49.4439 6.29175C41.824 7.06766 34.4975 9.64338 28.0685 13.8066C21.6395 17.9698 16.2919 23.6014 12.4666 30.237C8.64123 36.8726 6.44767 44.3224 6.06667 51.9722C5.68568 59.6221 7.12818 67.2529 10.2753 74.2358C13.4223 81.2187 18.1839 87.3537 24.1674 92.1351" stroke="#222222" stroke-width="4" stroke-linecap="round" stroke-linejoin="round"/>
</svg>
