<svg width="145" height="145" viewBox="0 0 145 145" fill="none" xmlns="http://www.w3.org/2000/svg">
<path d="M120.833 106.213C127.184 103.431 132.385 98.549 135.563 92.3864C138.741 86.2238 139.702 79.1556 138.285 72.3682C136.868 65.5808 133.159 59.4875 127.781 55.1111C122.403 50.7347 115.683 48.3415 108.75 48.3333H101.137C99.2222 40.9173 95.572 34.0626 90.4877 28.3342C85.4034 22.6058 79.0305 18.1678 71.8942 15.3859C64.758 12.6039 57.0628 11.5578 49.4429 12.3337C41.823 13.1097 34.4966 15.6854 28.0675 19.8486C21.6385 24.0118 16.2909 29.6434 12.4656 36.279C8.64026 42.9146 6.44669 50.3644 6.0657 58.0142C5.68471 65.664 7.1272 73.2949 10.2743 80.2778C13.4214 87.2607 18.1829 93.3957 24.1665 98.1771" stroke="black" stroke-width="4" stroke-linecap="round" stroke-linejoin="round"/>
<path d="M48.333 96.6666H48.3934" stroke="black" stroke-width="6" stroke-linecap="round" stroke-linejoin="round"/>
<path d="M48.333 120.833H48.3934" stroke="black" stroke-width="6" stroke-linecap="round" stroke-linejoin="round"/>
<path d="M72.5 108.75H72.5604" stroke="black" stroke-width="6" stroke-linecap="round" stroke-linejoin="round"/>
<path d="M72.5 132.917H72.5604" stroke="black" stroke-width="6" stroke-linecap="round" stroke-linejoin="round"/>
<path d="M96.667 96.6666H96.7274" stroke="black" stroke-width="6" stroke-linecap="round" stroke-linejoin="round"/>
<path d="M96.667 120.833H96.7274" stroke="black" stroke-width="6" stroke-linecap="round" stroke-linejoin="round"/>
</svg>
