<svg width="24" height="24" viewBox="0 0 24 24" fill="none" xmlns="http://www.w3.org/2000/svg">
<circle cx="12" cy="12" r="12" fill="white"/>
<path d="M12 17.3333H18" stroke="#222222" stroke-linecap="round" stroke-linejoin="round"/>
<path d="M15 6.33334C15.2652 6.06813 15.6249 5.91913 16 5.91913C16.1857 5.91913 16.3696 5.95571 16.5412 6.02678C16.7128 6.09785 16.8687 6.20202 17 6.33334C17.1313 6.46466 17.2355 6.62057 17.3066 6.79215C17.3776 6.96373 17.4142 7.14762 17.4142 7.33334C17.4142 7.51906 17.3776 7.70296 17.3066 7.87454C17.2355 8.04612 17.1313 8.20202 17 8.33334L8.66667 16.6667L6 17.3333L6.66667 14.6667L15 6.33334Z" stroke="#222222" stroke-linecap="round" stroke-linejoin="round"/>
</svg>
