<svg width="118" height="44" viewBox="0 0 118 44" fill="none" xmlns="http://www.w3.org/2000/svg">
<rect width="118" height="44" rx="8" fill="#131313"/>
<path d="M24.2891 14.0312H36.0312V17.2891H28.2734V20.875H35.4219V24.1328H28.2734V27.7422H36.0547V31H24.2891V14.0312ZM47.6375 31H43.1141L38.7547 18.2734H42.9031L45.3172 27.1094H45.4578L47.8484 18.2734H52.0203L47.6375 31ZM60.2516 31.2344C58.9312 31.2344 57.7867 30.9727 56.818 30.4492C55.857 29.918 55.1187 29.1641 54.6031 28.1875C54.0875 27.2031 53.8297 26.0391 53.8297 24.6953C53.8297 23.3906 54.0875 22.2422 54.6031 21.25C55.1187 20.25 55.8492 19.4766 56.7945 18.9297C57.7477 18.3828 58.8531 18.1094 60.1109 18.1094C61.3141 18.1094 62.3766 18.3594 63.2984 18.8594C64.2281 19.3594 64.9508 20.0977 65.4664 21.0742C65.9898 22.0508 66.2516 23.2266 66.2516 24.6016V25.6094H57.7203V25.6797C57.7281 26.5 57.9625 27.1562 58.4234 27.6484C58.8922 28.1328 59.525 28.375 60.3219 28.375C60.8531 28.375 61.3141 28.2656 61.7047 28.0469C62.0953 27.8281 62.3687 27.5312 62.525 27.1562H66.2047C66.0406 27.9844 65.6969 28.707 65.1734 29.3242C64.6578 29.9336 63.9781 30.4062 63.1344 30.7422C62.2984 31.0703 61.3375 31.2344 60.2516 31.2344ZM62.5719 23.2891C62.5641 22.8438 62.4586 22.4453 62.2555 22.0938C62.0523 21.7422 61.7711 21.4688 61.4117 21.2734C61.0523 21.0703 60.65 20.9688 60.2047 20.9688C59.7516 20.9688 59.3375 21.0703 58.9625 21.2734C58.5953 21.4766 58.2984 21.7539 58.0719 22.1055C57.8531 22.457 57.7359 22.8516 57.7203 23.2891H62.5719ZM73.4516 31H69.4906V18.2734H73.2406V20.5938H73.3812C73.6703 19.8203 74.1547 19.2148 74.8344 18.7773C75.5141 18.332 76.3187 18.1094 77.2484 18.1094C78.1312 18.1094 78.9047 18.3086 79.5687 18.707C80.2406 19.0977 80.7562 19.6562 81.1156 20.3828C81.475 21.1016 81.6547 21.9375 81.6547 22.8906V31H77.7172V23.6406C77.7172 22.9219 77.5336 22.3633 77.1664 21.9648C76.7992 21.5586 76.2875 21.3516 75.6312 21.3438C74.9672 21.3516 74.4359 21.5664 74.0375 21.9883C73.6469 22.4023 73.4516 22.9766 73.4516 23.7109V31ZM92.4406 21.1797H90.1203V27.0156C90.1281 27.3984 90.2219 27.668 90.4016 27.8242C90.5812 27.9805 90.8469 28.0625 91.1984 28.0703L91.4562 28.082C91.6594 28.082 92.0422 28.0625 92.6047 28.0234V31.0469C92.05 31.1328 91.3937 31.1797 90.6359 31.1875C89.1984 31.1797 88.093 30.8711 87.3195 30.2617C86.5539 29.6445 86.175 28.7109 86.1828 27.4609V21.1797H84.4719V18.2734H86.1828V15.2266H90.1203V18.2734H92.4406V21.1797Z" fill="white"/>
</svg>
