<svg width="24" height="24" viewBox="0 0 24 24" fill="none" xmlns="http://www.w3.org/2000/svg">
<path d="M13.4134 13.4133C13.2303 13.6098 13.0095 13.7674 12.7641 13.8768C12.5188 13.9861 12.254 14.0448 11.9854 14.0496C11.7169 14.0543 11.4501 14.0049 11.2011 13.9043C10.9521 13.8037 10.7258 13.654 10.5359 13.4641C10.346 13.2742 10.1963 13.048 10.0957 12.7989C9.9951 12.5499 9.9457 12.2832 9.95044 12.0146C9.95518 11.7461 10.014 11.4812 10.1233 11.2359C10.2326 10.9906 10.3902 10.7698 10.5867 10.5867M15.96 15.96C14.8204 16.8287 13.4328 17.3099 12 17.3333C7.33335 17.3333 4.66669 12 4.66669 12C5.49595 10.4546 6.64611 9.10441 8.04002 8.04001L15.96 15.96ZM10.6 6.82667C11.0589 6.71926 11.5287 6.66557 12 6.66667C16.6667 6.66667 19.3334 12 19.3334 12C18.9287 12.7571 18.4461 13.4698 17.8934 14.1267L10.6 6.82667Z" stroke="#222222" stroke-linecap="round" stroke-linejoin="round"/>
<path d="M4.66669 4.66667L19.3334 19.3333" stroke="#222222" stroke-linecap="round" stroke-linejoin="round"/>
</svg>
