<svg width="56" height="21" viewBox="0 0 56 21" fill="none" xmlns="http://www.w3.org/2000/svg">
<path d="M38.2123 5.13902C38.4425 5.14442 38.6714 5.10289 38.8849 5.017C39.0983 4.93111 39.2919 4.80266 39.4536 4.63959C39.618 4.47908 39.7474 4.28669 39.834 4.07437C39.9205 3.86205 39.9623 3.63434 39.9567 3.40531C39.9622 3.1763 39.9203 2.94863 39.8338 2.73634C39.7472 2.52405 39.6178 2.33164 39.4536 2.17103C39.2917 2.00831 39.0981 1.88016 38.8846 1.79445C38.6712 1.70874 38.4424 1.66727 38.2123 1.67257C37.9822 1.66727 37.7534 1.70874 37.5399 1.79445C37.3265 1.88016 37.1329 2.00831 36.971 2.17103C36.807 2.33172 36.6777 2.52414 36.5914 2.73643C36.505 2.94872 36.4632 3.17637 36.4688 3.40531C36.463 3.63428 36.5046 3.862 36.591 4.07432C36.6774 4.28664 36.8068 4.47903 36.971 4.63959C37.1327 4.80266 37.3262 4.93111 37.5397 5.017C37.7532 5.10289 37.9821 5.14442 38.2123 5.13902Z" fill="#A1ED00"/>
<path d="M6.39722 5.7135C4.70119 5.71551 3.07523 6.38638 1.87596 7.57892C0.676684 8.77146 0.00202149 10.3883 0 12.0748V14.6383C0.00202149 16.3248 0.676684 17.9416 1.87596 19.1342C3.07523 20.3267 4.70119 20.9976 6.39722 20.9996C8.09325 20.9976 9.71921 20.3267 10.9185 19.1342C12.1178 17.9416 12.7924 16.3248 12.7944 14.6383V12.0748C12.7924 10.3883 12.1178 8.77146 10.9185 7.57892C9.71921 6.38638 8.09325 5.71551 6.39722 5.7135ZM9.93002 14.6383C9.93002 15.57 9.55783 16.4635 8.8953 17.1223C8.23277 17.7811 7.33418 18.1512 6.39722 18.1512C5.46027 18.1512 4.56167 17.7811 3.89915 17.1223C3.23662 16.4635 2.86443 15.57 2.86443 14.6383V12.0748C2.86443 11.1431 3.23662 10.2496 3.89915 9.59074C4.56167 8.93194 5.46027 8.56184 6.39722 8.56184C7.33418 8.56184 8.23277 8.93194 8.8953 9.59074C9.55783 10.2496 9.93002 11.1431 9.93002 12.0748V14.6383Z" fill="black"/>
<path d="M21.3884 5.7135C17.8614 5.7135 14.9912 8.54189 14.9912 12.0178V19.433C14.9912 19.8107 15.1421 20.1729 15.4107 20.44C15.6793 20.7071 16.0436 20.8572 16.4234 20.8572C16.8033 20.8572 17.1675 20.7071 17.4361 20.44C17.7047 20.1729 17.8556 19.8107 17.8556 19.433V12.0178C17.8556 10.1123 19.4406 8.56184 21.3884 8.56184C23.3362 8.56184 24.9212 10.1123 24.9212 12.0178V19.433C24.9212 19.8107 25.0721 20.1729 25.3407 20.44C25.6093 20.7071 25.9736 20.8572 26.3534 20.8572C26.7333 20.8572 27.0976 20.7071 27.3662 20.44C27.6347 20.1729 27.7857 19.8107 27.7857 19.433V12.0178C27.7857 8.54189 24.9155 5.7135 21.3884 5.7135Z" fill="black"/>
<path d="M54.8714 18.0414C53.3208 17.7062 52.1693 16.9268 51.4512 15.7238C51.1219 15.1748 50.8997 14.5689 50.7962 13.9379V8.56212H54.5677C54.9476 8.56212 55.3119 8.41206 55.5805 8.14497C55.8491 7.87789 56 7.51566 56 7.13795C56 6.76024 55.8491 6.39801 55.5805 6.13092C55.3119 5.86384 54.9476 5.71378 54.5677 5.71378H50.7982V1.42417C50.7982 1.04646 50.6473 0.684228 50.3787 0.417144C50.1101 0.150061 49.7458 0 49.3659 0C48.9861 0 48.6218 0.150061 48.3532 0.417144C48.0846 0.684228 47.9337 1.04646 47.9337 1.42417V5.71378H44.0868C43.707 5.71378 43.3427 5.86384 43.0741 6.13092C42.8055 6.39801 42.6546 6.76024 42.6546 7.13795C42.6546 7.51566 42.8055 7.87789 43.0741 8.14497C43.3427 8.41206 43.707 8.56212 44.0868 8.56212H47.9337V13.8315C47.9327 14.9266 47.4948 15.9765 46.7161 16.7509C45.9374 17.5252 44.8816 17.9606 43.7803 17.9616C42.6791 17.9606 41.6232 17.5252 40.8445 16.7509C40.0658 15.9765 39.6279 14.9266 39.6269 13.8315V12.5023C39.6268 12.4461 39.6233 12.39 39.6164 12.3343V7.74939C39.6164 7.37167 39.4655 7.00945 39.1969 6.74236C38.9283 6.47528 38.564 6.32522 38.1842 6.32522C37.8043 6.32522 37.44 6.47528 37.1714 6.74236C36.9028 7.00945 36.752 7.37167 36.752 7.74939V13.3093C36.752 13.4043 36.752 13.8562 36.752 13.9379C36.6966 15.4665 34.9598 17.7651 33.2535 18.0252C33.0676 18.0536 32.889 18.1182 32.7282 18.2152C32.5673 18.3122 32.4272 18.4398 32.3159 18.5906C32.2047 18.7415 32.1243 18.9127 32.0796 19.0944C32.0349 19.2761 32.0266 19.4648 32.0553 19.6497C32.1072 19.9852 32.2779 20.2913 32.5366 20.5127C32.7953 20.7341 33.1251 20.8564 33.4665 20.8574C33.54 20.8572 33.6133 20.8518 33.6861 20.8413C35.4429 20.5717 37.0164 19.3877 38.1001 17.9227C38.7496 18.8161 39.6029 19.5436 40.59 20.0455C41.5771 20.5474 42.6698 20.8094 43.7784 20.81C44.8924 20.8095 45.9902 20.5451 46.981 20.0387C47.9718 19.5323 48.827 18.7985 49.4757 17.898C50.3723 19.0706 51.8532 20.3049 54.2641 20.8252C54.3642 20.8466 54.4663 20.8574 54.5687 20.8574C54.8956 20.8572 55.2127 20.7458 55.4672 20.5416C55.7216 20.3375 55.8982 20.0529 55.9675 19.7352C56.0074 19.5524 56.0107 19.3636 55.9772 19.1795C55.9437 18.9955 55.874 18.8198 55.7723 18.6625C55.6705 18.5053 55.5385 18.3694 55.3839 18.2629C55.2294 18.1563 55.0552 18.081 54.8714 18.0414Z" fill="black"/>
</svg>
