<svg width="145" height="145" viewBox="0 0 145 145" fill="none" xmlns="http://www.w3.org/2000/svg">
<path d="M108.75 60.4167H101.137C98.8769 51.6624 94.2063 43.7175 87.6562 37.485C81.1061 31.2524 72.9391 26.9821 64.0832 25.1592C55.2274 23.3364 46.0378 24.0341 37.5587 27.173C29.0796 30.312 21.6509 35.7664 16.1168 42.9163C10.5827 50.0663 7.16513 58.6253 6.25234 67.6206C5.33954 76.6158 6.96817 85.6868 10.9532 93.8028C14.9382 101.919 21.1197 108.754 28.7955 113.532C36.4712 118.311 45.3333 120.84 54.3748 120.833H108.75C116.762 120.833 124.445 117.651 130.11 111.986C135.775 106.32 138.958 98.6368 138.958 90.6251C138.958 82.6133 135.775 74.9297 130.11 69.2646C124.445 63.5994 116.762 60.4167 108.75 60.4167Z" stroke="black" stroke-width="4" stroke-linecap="round" stroke-linejoin="round"/>
<path d="M105.24 24.0001C105.867 22.2178 107.105 20.715 108.733 19.7577C110.362 18.8005 112.277 18.4506 114.139 18.77C116.001 19.0893 117.69 20.0575 118.907 21.5028C120.124 22.9481 120.79 24.7774 120.787 26.6667C120.787 32.0001 112.787 34.6667 112.787 34.6667" stroke="black" stroke-width="4" stroke-linecap="round" stroke-linejoin="round"/>
<path d="M113 45.3333H113.027" stroke="black" stroke-width="4" stroke-linecap="round" stroke-linejoin="round"/>
</svg>
